<?xml version="1.0" standalone="no"?>
<!DOCTYPE svg PUBLIC "-//W3C//DTD SVG 20010904//EN"
 "http://www.w3.org/TR/2001/REC-SVG-20010904/DTD/svg10.dtd">
<svg version="1.0" xmlns="http://www.w3.org/2000/svg"
 width="16.000000pt" height="16.000000pt" viewBox="0 0 16.000000 16.000000"
 preserveAspectRatio="xMidYMid meet">
<metadata>
Created by potrace 1.11, written by Peter Selinger 2001-2013
</metadata>
<g transform="translate(0.000000,16.000000) scale(0.004372,-0.004372)"
fill="#000000" stroke="none">
<path d="M1645 3609 c-581 -63 -1093 -403 -1378 -914 -103 -184 -178 -408
-209 -622 -16 -113 -16 -373 0 -486 41 -287 154 -568 325 -807 78 -109 288
-319 397 -397 239 -171 520 -284 807 -325 113 -16 373 -16 486 0 287 41 568
154 807 325 109 78 319 288 397 397 171 239 284 520 325 807 16 113 16 373 0
486 -41 287 -154 568 -325 807 -78 109 -288 319 -397 397 -236 168 -519 284
-795 323 -114 16 -335 20 -440 9z m510 -99 c689 -137 1217 -666 1357 -1361 19
-97 23 -145 23 -319 0 -174 -4 -222 -23 -319 -140 -697 -666 -1223 -1363
-1363 -97 -19 -145 -23 -319 -23 -174 0 -222 4 -319 23 -697 140 -1223 666
-1363 1363 -19 97 -23 145 -23 319 0 174 4 222 23 319 150 747 741 1291 1502
1385 19 2 116 3 215 1 136 -2 207 -8 290 -25z"/>
<path d="M1749 3353 c-4 -23 3 -294 8 -330 3 -27 10 -43 19 -43 16 0 17 37 7
243 -5 105 -9 137 -20 137 -7 0 -14 -3 -14 -7z"/>
<path d="M1817 3233 c-11 -199 -9 -243 7 -243 10 0 16 23 21 86 l7 85 55 -7
c50 -6 55 -5 51 12 -2 15 -14 20 -56 22 l-53 3 3 70 3 70 55 -3 c44 -2 55 0
55 12 0 12 -16 16 -71 18 l-71 3 -6 -128z"/>
<path d="M1650 3323 c0 -16 4 -55 9 -88 25 -164 28 -162 -44 -35 -61 109 -87
142 -100 128 -5 -5 28 -289 40 -345 3 -13 12 -23 20 -23 18 0 18 17 0 145 -8
55 -15 105 -15 110 0 6 29 -42 65 -105 60 -108 87 -142 99 -129 5 5 -22 229
-40 337 -6 40 -34 44 -34 5z"/>
<path d="M2073 3330 c-31 -13 -48 -52 -67 -155 -20 -112 -20 -154 -1 -182 29
-42 111 -38 135 6 14 27 50 204 50 248 0 47 -14 69 -51 82 -37 13 -37 13 -66
1z m77 -51 c9 -15 6 -46 -10 -131 -26 -135 -32 -148 -69 -148 -51 0 -56 18
-36 133 24 140 36 167 74 167 20 0 34 -7 41 -21z"/>
<path d="M1400 3158 l0 -153 -80 120 c-72 108 -110 148 -110 114 0 -20 101
-333 111 -343 6 -6 13 -6 19 0 7 7 2 33 -13 80 -44 130 -41 134 24 37 34 -51
68 -93 75 -93 11 0 14 25 14 113 l1 112 31 -95 c16 -52 32 -97 34 -99 2 -2 10
-1 18 2 12 5 9 21 -15 99 -16 51 -41 130 -55 176 -16 53 -30 82 -40 82 -12 0
-14 -26 -14 -152z"/>
<path d="M2278 3257 c-25 -28 -97 -219 -97 -259 -1 -35 36 -76 76 -84 51 -10
83 30 126 161 21 61 37 118 37 128 0 10 -13 32 -29 48 -37 37 -83 39 -113 6z
m80 -23 c30 -21 28 -47 -13 -160 -40 -110 -49 -124 -79 -124 -29 0 -46 18 -46
47 0 37 69 227 87 241 21 15 24 15 51 -4z"/>
<path d="M2423 3050 c-46 -87 -83 -161 -83 -164 0 -11 80 -46 103 -46 41 0 76
38 128 142 63 125 64 159 4 200 -22 15 -47 27 -55 27 -9 1 -46 -60 -97 -159z
m141 99 c14 -11 26 -27 26 -35 0 -23 -96 -207 -119 -228 -18 -16 -24 -17 -51
-6 -16 7 -30 17 -30 22 0 14 134 268 141 268 4 0 18 -9 33 -21z"/>
<path d="M1041 3154 c-21 -17 -31 -35 -31 -53 0 -30 91 -213 123 -248 40 -44
123 -22 142 37 5 15 -9 55 -46 132 -75 155 -122 188 -188 132z m84 -20 c27
-27 116 -214 113 -237 -4 -28 -50 -46 -72 -28 -27 23 -116 199 -116 230 0 45
44 66 75 35z"/>
<path d="M2317 2568 c-125 -152 -198 -244 -246 -313 -44 -63 -50 -93 -29 -168
l11 -44 -98 -144 c-53 -79 -104 -152 -113 -161 -18 -21 -10 -30 -145 168 l-97
142 16 38 c25 59 15 165 -23 245 -79 167 -269 319 -399 319 -73 0 -88 -23 -87
-129 2 -137 66 -294 161 -393 71 -75 155 -118 228 -118 l53 0 121 -169 c66
-92 120 -171 120 -175 0 -4 -46 -69 -102 -144 -98 -132 -186 -227 -352 -379
l-79 -72 5 -53 c2 -29 11 -66 19 -83 14 -29 17 -30 82 -29 91 1 104 15 168
178 28 72 68 163 88 202 46 85 200 324 210 324 6 0 108 -154 184 -280 25 -42
71 -141 102 -220 67 -174 86 -197 168 -206 72 -9 91 6 108 83 11 49 11 59 -6
89 -10 19 -59 69 -109 111 -50 42 -113 100 -139 127 -48 50 -269 338 -270 351
0 4 53 83 119 176 l119 168 43 1 c69 0 105 22 155 91 72 103 277 452 277 473
0 20 0 20 -18 1 -10 -11 -85 -113 -166 -227 -81 -115 -152 -208 -157 -208 -18
0 -9 14 146 240 141 205 168 251 149 250 -5 -1 -83 -104 -173 -231 -93 -129
-169 -225 -173 -221 -5 5 59 108 146 237 86 125 156 232 156 237 0 27 -38 -18
-182 -218 -87 -120 -163 -220 -168 -222 -23 -8 -3 27 113 195 199 289 190 273
173 273 -9 0 -57 -51 -109 -112z"/>
<path d="M641 1064 c-79 -53 -110 -79 -103 -86 8 -8 26 -1 62 22 l50 32 25
-26 c13 -14 35 -26 49 -26 35 0 86 46 86 77 0 29 -29 83 -45 83 -5 0 -61 -34
-124 -76z m135 9 c6 -20 2 -31 -16 -45 -29 -23 -43 -23 -66 3 -16 18 -16 22
-4 29 8 5 24 16 35 24 29 22 44 19 51 -11z"/>
<path d="M2880 1125 c0 -9 12 -38 26 -66 l25 -51 -67 4 c-45 2 -68 -1 -71 -9
-3 -8 21 -14 76 -18 69 -7 87 -12 137 -46 53 -35 74 -41 74 -20 0 5 -25 25
-55 45 -45 30 -61 49 -90 106 -34 67 -55 88 -55 55z"/>
<path d="M727 948 c-78 -65 -106 -93 -98 -101 8 -8 19 -4 38 14 54 49 62 53
78 39 24 -20 17 -47 -20 -81 -37 -34 -44 -49 -22 -49 18 0 87 67 87 84 0 9 9
16 19 16 11 0 33 12 50 26 40 33 41 73 4 113 l-28 30 -108 -91z m133 3 c0 -42
-64 -67 -91 -35 -11 14 -8 21 25 52 37 33 40 34 53 17 7 -11 13 -25 13 -34z"/>
<path d="M1560 935 l0 -76 68 3 c64 3 67 4 70 30 2 20 -4 31 -22 44 -14 9 -26
25 -26 35 0 23 18 25 26 4 4 -8 10 -15 15 -15 5 0 9 7 9 15 0 8 7 15 15 15 12
0 15 -14 15 -65 0 -37 4 -65 10 -65 6 0 10 28 10 65 0 51 3 65 15 65 8 0 15 5
15 10 0 14 -133 13 -148 -2 -20 -20 -13 -45 19 -71 18 -14 29 -29 25 -36 -10
-16 -26 -14 -26 4 0 8 -7 15 -16 15 -11 0 -15 -6 -12 -18 4 -15 1 -18 -18 -14
-31 6 -32 39 -1 44 27 4 26 22 -3 26 -27 4 -28 42 -1 42 11 0 23 5 26 10 4 6
-8 10 -29 10 l-36 0 0 -75z"/>
<path d="M1845 989 c-9 -28 3 -38 19 -16 7 9 16 17 20 17 13 0 5 -35 -13 -54
-11 -12 -23 -33 -26 -48 -7 -27 -5 -28 29 -28 20 0 36 5 36 10 0 6 -9 10 -20
10 -11 0 -20 3 -20 6 0 3 9 17 20 31 l20 26 0 -29 c0 -40 13 -56 41 -52 21 3
24 9 27 56 4 69 22 67 22 -3 0 -55 16 -76 27 -35 3 11 14 20 24 20 12 0 19 -7
19 -20 0 -11 5 -20 10 -20 6 0 10 32 10 75 0 42 -4 75 -10 75 -5 0 -18 -17
-29 -37 l-20 -38 -1 38 c0 38 -15 48 -37 26 -8 -8 -13 -8 -17 0 -10 15 -56 14
-56 -1 0 -9 -3 -9 -12 0 -19 19 -56 14 -63 -9z m115 -54 c0 -30 -4 -55 -10
-55 -5 0 -10 25 -10 55 0 30 5 55 10 55 6 0 10 -25 10 -55z m110 0 c0 -8 -4
-15 -10 -15 -5 0 -7 7 -4 15 4 8 8 15 10 15 2 0 4 -7 4 -15z"/>
<path d="M2746 949 c-20 -17 -36 -34 -36 -38 0 -13 201 -181 216 -181 23 0 15
13 -31 50 -47 37 -52 49 -33 68 20 20 53 13 83 -18 28 -29 55 -39 55 -21 0 16
-80 81 -100 81 -11 0 -20 6 -20 13 0 17 -49 63 -77 71 -16 5 -31 -2 -57 -25z
m90 -24 c24 -24 24 -26 9 -55 l-16 -30 -39 31 c-22 18 -40 35 -40 37 0 12 34
42 47 42 8 0 25 -11 39 -25z"/>
<path d="M820 828 l-94 -98 37 -37 c25 -26 40 -34 47 -27 7 7 1 19 -20 39
l-30 29 37 38 37 38 32 -31 c17 -17 34 -27 38 -21 3 5 -8 22 -24 37 l-30 29
37 38 37 38 28 -27 c15 -15 28 -30 28 -34 0 -3 -34 -51 -75 -104 -41 -54 -75
-102 -75 -107 0 -23 30 -1 70 52 24 33 46 60 47 60 1 0 -11 -32 -28 -71 -29
-71 -35 -99 -22 -99 3 0 38 23 77 51 l70 51 -52 -65 c-28 -36 -47 -69 -42 -72
16 -10 25 -1 106 106 42 55 79 97 82 95 2 -3 -28 -55 -68 -117 -53 -82 -69
-114 -60 -123 7 -7 13 -8 18 0 4 6 33 52 65 102 33 51 61 92 64 92 2 0 -4 -15
-15 -32 -11 -18 -35 -62 -53 -97 -30 -59 -31 -66 -18 -90 11 -19 24 -27 51
-29 41 -4 49 5 113 125 22 40 40 71 42 69 2 -2 -14 -48 -35 -102 -54 -136 -56
-144 -39 -144 9 0 26 26 41 63 l27 62 -7 -77 c-7 -98 5 -102 66 -18 24 33 45
60 47 60 1 0 -7 -24 -19 -52 -29 -73 -33 -98 -17 -98 13 0 109 228 109 258 0
30 -30 5 -85 -70 -35 -48 -61 -76 -63 -67 -1 8 1 55 6 105 8 80 5 98 -14 94
-3 -1 -12 7 -19 16 -11 16 -18 6 -65 -80 -58 -108 -74 -128 -95 -120 -26 10
-16 48 35 143 54 100 58 111 35 111 -8 0 -15 4 -15 9 0 5 -8 11 -17 15 -10 3
-23 8 -29 11 -5 3 -47 -22 -93 -55 -46 -34 -84 -60 -86 -58 -2 2 14 46 35 98
l38 95 -46 48 c-25 26 -49 46 -52 46 -3 -1 -48 -46 -100 -101z"/>
<path d="M2656 854 c-54 -50 -54 -43 -3 -161 l36 -82 -85 69 c-84 69 -85 69
-110 54 -22 -15 -23 -19 -11 -38 8 -11 42 -65 76 -118 55 -86 81 -110 81 -77
0 5 -24 47 -54 93 -84 131 -84 132 27 42 100 -81 127 -98 127 -77 0 5 -16 47
-36 93 -71 166 -73 162 24 62 l89 -91 36 29 c20 17 37 36 37 44 0 21 -10 17
-42 -13 l-28 -27 -38 38 -37 37 33 28 c17 15 32 31 32 34 0 16 -28 5 -50 -18
l-24 -25 -38 37 -38 37 31 32 c48 49 20 48 -35 -2z"/>
<path d="M1780 870 c0 -5 7 -10 16 -10 8 0 12 5 9 10 -3 6 -10 10 -16 10 -5 0
-9 -4 -9 -10z"/>
<path d="M2320 643 c-30 -13 -56 -26 -58 -27 -5 -5 107 -251 116 -254 5 -1 31
7 57 18 37 16 45 24 37 32 -9 9 -20 8 -45 -4 l-34 -16 -22 45 c-12 25 -21 46
-19 47 2 1 21 10 42 19 52 24 35 45 -18 23 l-37 -15 -16 37 c-8 20 -17 40 -19
44 -3 4 13 16 34 27 l39 20 62 -114 62 -115 49 25 c53 27 66 40 50 50 -6 4
-27 -3 -47 -15 -19 -11 -36 -20 -38 -18 -1 2 -28 51 -61 111 -32 59 -63 107
-69 106 -5 0 -35 -12 -65 -26z"/>
<path d="M2168 588 c-16 -5 -28 -15 -28 -21 0 -7 18 -66 40 -132 l39 -120 31
2 c42 2 70 29 70 68 0 47 -47 177 -71 198 -24 19 -41 20 -81 5z m94 -98 c33
-93 35 -126 7 -140 -11 -7 -23 -10 -25 -8 -2 3 -19 52 -38 111 -34 109 -33
118 9 114 15 -2 26 -20 47 -77z"/>
<path d="M1536 559 c-6 -20 -46 -242 -46 -256 0 -7 6 -13 14 -13 9 0 17 16 21
43 12 76 13 77 53 75 50 -4 53 15 4 25 l-39 8 10 48 9 48 44 -5 c28 -3 44 -1
44 6 0 21 -108 41 -114 21z"/>
<path d="M1942 541 c-11 -7 -10 -32 4 -146 l18 -137 40 7 c69 10 79 28 72 115
-9 100 -23 148 -46 160 -23 12 -70 13 -88 1z m82 -38 c8 -27 26 -145 26 -171
0 -14 -9 -27 -25 -34 -14 -6 -27 -9 -29 -7 -3 2 -9 42 -15 89 -7 47 -14 97
-17 113 -5 25 -3 27 25 27 20 0 31 -6 35 -17z"/>
<path d="M1671 531 c-18 -11 -30 -79 -31 -167 0 -78 15 -104 61 -104 51 0 65
28 74 148 7 81 5 95 -10 112 -19 21 -69 27 -94 11z m69 -25 c8 -11 9 -39 4
-98 -8 -98 -17 -120 -47 -116 -21 3 -22 7 -20 101 2 96 11 127 38 127 7 0 18
-6 25 -14z"/>
<path d="M1810 520 c-17 -17 -20 -33 -19 -107 1 -49 4 -99 8 -113 15 -53 95
-59 121 -9 19 35 3 206 -21 230 -25 25 -64 24 -89 -1z m82 -100 c7 -95 3 -126
-18 -134 -40 -15 -54 20 -54 133 0 72 11 94 45 89 18 -3 21 -13 27 -88z"/>
</g>
</svg>
